<?xml version="1.0" encoding="utf-8" ?>
<svg xmlns="http://www.w3.org/2000/svg" xmlns:xlink="http://www.w3.org/1999/xlink" width="2048" height="1024">
	<path fill="#FEFEFE" d="M0 0L2046.25 0C2048.75 3.75313 2047.99 9.76244 2047.99 14.1208L2048.02 767.612L2048.01 954.147C2048.01 967.073 2049.66 1011.74 2047.62 1020.8C2047.36 1021.98 2046.85 1022.96 2046.25 1024L0 1024L0 0Z"/>
	<path fill="#0C3570" d="M578.439 258.094C583.849 257.754 588.721 257.938 593.708 260.301Q594.264 260.563 594.806 260.853Q595.348 261.143 595.874 261.459Q596.401 261.776 596.91 262.119Q597.42 262.462 597.912 262.831Q598.404 263.199 598.877 263.592Q599.349 263.984 599.802 264.4Q600.254 264.816 600.684 265.255Q601.115 265.693 601.523 266.152Q601.931 266.612 602.315 267.092Q602.699 267.571 603.059 268.069Q603.418 268.568 603.752 269.084Q604.086 269.6 604.394 270.132Q604.701 270.664 604.981 271.211Q605.261 271.758 605.513 272.318Q605.766 272.878 605.989 273.451Q606.213 274.023 606.407 274.606Q606.593 275.161 606.752 275.725Q606.911 276.288 607.042 276.859Q607.174 277.43 607.277 278.006Q607.381 278.583 607.456 279.163Q607.531 279.744 607.578 280.328Q607.625 280.912 607.644 281.497Q607.662 282.082 607.652 282.668Q607.642 283.253 607.604 283.838Q607.565 284.422 607.498 285.004Q607.432 285.586 607.336 286.164Q607.241 286.741 607.118 287.314Q606.995 287.886 606.844 288.452Q606.694 289.018 606.515 289.576Q606.337 290.134 606.132 290.683Q605.927 291.231 605.696 291.769Q605.464 292.307 605.207 292.833C601.695 299.891 595.786 303.516 588.58 306.033C583.928 306.676 579.715 306.492 575.28 304.8C568.915 302.373 563.808 297.659 561.181 291.335Q560.953 290.795 560.752 290.243Q560.551 289.692 560.377 289.132Q560.204 288.572 560.059 288.003Q559.913 287.435 559.796 286.86Q559.679 286.285 559.591 285.705Q559.503 285.125 559.443 284.542Q559.384 283.958 559.354 283.372Q559.323 282.787 559.322 282.2Q559.321 281.613 559.349 281.027Q559.377 280.442 559.434 279.858Q559.491 279.274 559.578 278.694Q559.664 278.113 559.778 277.538Q559.893 276.963 560.036 276.394Q560.179 275.825 560.351 275.264Q560.522 274.703 560.721 274.151Q560.92 273.599 561.146 273.058C564.585 264.885 570.584 261.229 578.439 258.094Z"/>
	<path fill="#75C9F8" d="M580.719 372.186C584.979 371.949 589.523 372.715 593.402 374.51C599.416 377.293 603.725 382.145 605.892 388.394Q606.092 388.978 606.262 389.571Q606.432 390.165 606.572 390.766Q606.713 391.367 606.823 391.974Q606.933 392.581 607.013 393.193Q607.092 393.805 607.141 394.421Q607.19 395.036 607.209 395.653Q607.227 396.27 607.214 396.887Q607.202 397.504 607.158 398.119Q607.115 398.735 607.041 399.348Q606.967 399.961 606.862 400.569Q606.757 401.177 606.623 401.779Q606.488 402.382 606.323 402.977Q606.158 403.571 605.964 404.157Q605.77 404.743 605.546 405.318Q605.323 405.894 605.071 406.457Q604.82 407.021 604.54 407.571C600.622 415.19 594.667 418.745 586.724 421.213C581.312 421.163 576.629 420.809 571.823 418.109Q571.275 417.805 570.742 417.475Q570.209 417.144 569.694 416.788Q569.179 416.431 568.682 416.049Q568.185 415.667 567.708 415.26Q567.231 414.854 566.774 414.424Q566.318 413.994 565.884 413.542Q565.45 413.09 565.039 412.616Q564.628 412.143 564.241 411.65Q563.854 411.157 563.492 410.645Q563.131 410.133 562.795 409.603Q562.46 409.074 562.151 408.528Q561.842 407.983 561.561 407.423Q561.28 406.862 561.027 406.289Q560.775 405.715 560.551 405.13Q560.327 404.544 560.133 403.948Q559.939 403.352 559.775 402.747C558.072 396.591 558.861 389.742 562.138 384.234C566.472 376.949 572.776 374.097 580.719 372.186Z"/>
	<path fill="#0C3570" d="M658.671 161.171C663.954 160.838 669.285 161.702 673.967 164.248Q674.522 164.549 675.062 164.878Q675.601 165.207 676.123 165.563Q676.645 165.919 677.149 166.3Q677.652 166.681 678.136 167.088Q678.62 167.494 679.083 167.924Q679.546 168.354 679.987 168.807Q680.427 169.259 680.844 169.734Q681.262 170.208 681.655 170.703Q682.048 171.197 682.415 171.711Q682.783 172.225 683.125 172.757Q683.466 173.288 683.78 173.836Q684.094 174.384 684.381 174.947Q684.667 175.511 684.925 176.087Q685.182 176.664 685.411 177.253Q685.639 177.842 685.837 178.442Q686.036 179.042 686.204 179.651Q686.372 180.24 686.511 180.836Q686.65 181.432 686.758 182.034Q686.867 182.637 686.945 183.244Q687.023 183.851 687.071 184.462Q687.118 185.072 687.135 185.684Q687.152 186.296 687.138 186.908Q687.124 187.52 687.08 188.13Q687.035 188.741 686.96 189.348Q686.885 189.956 686.779 190.559Q686.673 191.162 686.537 191.759Q686.401 192.355 686.236 192.945Q686.07 193.534 685.875 194.114Q685.68 194.695 685.456 195.264Q685.232 195.834 684.98 196.392Q684.728 196.95 684.448 197.494Q684.168 198.038 683.861 198.568C679.672 205.699 673.517 208.894 665.771 210.959C659.971 211.02 655.4 210.705 650.201 207.964C644.276 204.84 639.627 199.503 637.739 193.032Q637.566 192.453 637.423 191.866Q637.28 191.28 637.166 190.686Q637.052 190.093 636.968 189.495Q636.884 188.897 636.829 188.295Q636.775 187.693 636.751 187.09Q636.727 186.486 636.734 185.882Q636.74 185.278 636.776 184.675Q636.813 184.072 636.879 183.472Q636.946 182.872 637.042 182.275Q637.139 181.679 637.265 181.088Q637.391 180.497 637.547 179.914Q637.702 179.33 637.886 178.755Q638.071 178.18 638.284 177.614Q638.497 177.049 638.738 176.495Q638.979 175.941 639.247 175.4Q639.516 174.859 639.811 174.332C644.106 166.721 650.584 163.548 658.671 161.171Z"/>
	<path fill="#3C5CC4" d="M1212.04 748.498C1216.53 747.973 1221.84 747.298 1226.3 748.212C1228.45 748.655 1229.31 748.959 1230.58 750.802C1231.64 761.753 1232.53 778.039 1229.58 788.555C1229.32 788.365 1229.07 788.166 1228.81 787.987C1222.78 783.876 1213.77 784.01 1206.98 785.75C1178.09 793.157 1199.32 846.173 1190.13 861.988L1159.75 861.948L1154.57 861.676C1152.37 855.916 1153.79 845.6 1153.81 839.221C1153.85 826.339 1156.2 758.549 1152.06 751.967L1184.39 751.968C1187.24 756.415 1186.29 762.387 1185.57 767.341C1188 766.021 1189.81 763.664 1191.79 761.766C1198.15 755.667 1203.85 751.79 1212.04 748.498Z"/>
	<path fill="#3C5CC4" d="M1804.07 749.5C1811.33 748.455 1818.79 748.836 1826.1 748.935C1826.56 749.685 1827.01 750.511 1827.23 751.366C1828.62 756.814 1828.81 777.61 1826.09 782.494C1818.56 782.058 1810.96 781.429 1803.55 783.199C1774.45 790.15 1783.99 827.682 1783.51 849.888C1783.42 854.164 1783.74 859.276 1781.42 863.029L1755.75 863.007C1753.74 863.031 1751.42 863.246 1749.44 862.945C1746.41 862.484 1746.8 858.123 1746.78 855.677C1746.69 842.077 1749.53 756.701 1745.37 750.094L1781.48 750.023C1781.87 750.639 1781.9 750.63 1782.2 751.439C1783.62 755.333 1782.75 760.051 1780.95 763.631C1789.64 759.402 1792.89 753.577 1804.07 749.5Z"/>
	<path fill="#3C5CC4" d="M1422.83 750.499Q1429.57 749.832 1436.33 750.111C1450.26 750.727 1466.7 756.674 1476.11 767.273C1479.22 770.769 1483.66 776.618 1483.41 781.487C1479.01 786.928 1463.59 791.559 1456.83 793.693C1456.77 793.44 1456.72 793.185 1456.65 792.934C1455.76 789.84 1450.39 785.686 1447.57 784.185C1441.82 781.115 1433.98 779.823 1427.71 781.939Q1427.14 782.137 1426.57 782.363Q1426.01 782.589 1425.45 782.843Q1424.9 783.097 1424.36 783.378Q1423.83 783.659 1423.3 783.967Q1422.78 784.274 1422.27 784.608Q1421.76 784.941 1421.27 785.299Q1420.78 785.657 1420.3 786.039Q1419.83 786.421 1419.38 786.826Q1418.93 787.231 1418.49 787.658Q1418.06 788.085 1417.65 788.533Q1417.24 788.981 1416.85 789.448Q1416.46 789.916 1416.1 790.403Q1415.73 790.889 1415.4 791.393Q1415.06 791.897 1414.74 792.417Q1414.43 792.938 1414.14 793.473Q1413.85 794.008 1413.59 794.557C1410.22 801.757 1410.14 810.785 1412.91 818.189C1415.23 824.393 1419.77 829.586 1425.91 832.22C1431.87 834.778 1439.76 834.955 1445.79 832.486C1449.41 831 1454.98 827.331 1456.53 823.684C1461.51 825.208 1467.33 827.653 1471.24 831.138C1475.7 832.706 1481.6 835.288 1484.53 839.073C1484.36 840.277 1484.12 841.441 1483.49 842.503C1476.82 853.815 1462.41 860.87 1449.97 863.568C1433.18 867.209 1413.39 864.768 1398.89 855.224C1386.74 847.23 1379.05 835.057 1376.21 820.889C1373.01 804.912 1374.91 786.618 1384.18 772.902C1393.64 758.918 1406.97 753.577 1422.83 750.499Z"/>
	<path fill="#17213E" d="M1757.56 492.499C1770.2 491.208 1783.57 491.984 1796.3 491.993C1796.38 492.16 1796.46 492.329 1796.55 492.494C1796.93 493.228 1797.27 493.932 1797.55 494.716C1799.43 500.015 1798.86 530.648 1796.6 535.756L1824.22 535.735C1824.56 536.296 1824.86 536.866 1825.11 537.481C1827.4 543.294 1826.18 561.2 1823.98 566.842L1796.66 566.921C1803.23 577.368 1792.13 614.934 1801.78 624.959C1806.29 629.65 1820.25 627.935 1826.57 627.839C1827.21 628.811 1827.75 629.857 1828 631.003C1829.12 636.066 1829.26 647.063 1826.48 651.501C1826.93 652.448 1827.37 653.398 1827.73 654.382C1828.84 657.382 1828.33 659.952 1827 662.789C1812.37 662.93 1794.58 664.909 1780.67 659.646C1751.77 648.718 1758.6 608.838 1758.65 584.156C1758.66 579.004 1759.28 572.178 1757.04 567.439C1756.94 567.235 1756.83 567.038 1756.72 566.838L1740.4 566.836C1740.9 566.019 1741.4 565.125 1741.64 564.192C1743.22 558.245 1743.41 541.059 1740.23 535.951L1757.1 535.981C1757.2 535.815 1757.3 535.652 1757.39 535.481C1760.11 530.179 1759.38 498.911 1757.56 492.499Z"/>
	<path fill="#3C5CC4" d="M1037.31 701.434C1051.8 699.835 1067.31 700.983 1081.91 701.01L1164.28 700.87C1164.71 701.589 1165.13 702.349 1165.41 703.145C1167.65 709.474 1167.3 729.179 1164.53 734.959L1119.73 734.846C1120.28 735.672 1120.76 736.558 1120.95 737.547C1122.5 745.631 1122.36 811.885 1119.46 816.548C1120.14 817.619 1120.73 818.774 1120.95 820.036C1122.11 826.662 1122.5 857.2 1119.48 862.027L1082.35 861.894C1082.96 860.995 1083.47 860.021 1083.69 858.948C1085.73 848.778 1084.08 823.249 1084.09 811.768L1084.07 764.019C1084.07 755.974 1084.6 747.469 1083.86 739.477C1083.7 737.687 1083.19 736.354 1082.27 734.824L1036.82 734.848C1037.16 734.236 1037.48 733.614 1037.74 732.962C1040.21 726.711 1039.71 707.468 1037.31 701.434Z"/>
	<path fill="#3C5CC4" d="M1664.35 748.499C1676.5 747.374 1688.95 747.946 1700.25 752.979C1713.01 758.657 1722.06 769.399 1726.86 782.36C1730.27 791.568 1733.77 807.598 1729.54 816.856L1651.03 816.977C1656.35 821.516 1656.51 829.156 1663.58 832.86C1670.9 836.691 1680.53 837.236 1688.35 834.706C1692.68 833.305 1697.95 830.325 1700.05 826.104C1704.7 828.327 1711.81 833.276 1714.89 837.41C1718.21 838.746 1722.7 841.553 1724.33 844.803C1724.15 845.463 1724.15 845.641 1723.73 846.301C1718.68 854.219 1704.53 860.687 1695.93 862.866C1678.11 867.383 1656.12 865.29 1640.28 855.588Q1639.1 854.867 1637.96 854.087Q1636.82 853.308 1635.72 852.472Q1634.61 851.636 1633.56 850.746Q1632.5 849.857 1631.49 848.915Q1630.47 847.973 1629.51 846.982Q1628.55 845.991 1627.63 844.953Q1626.72 843.915 1625.86 842.832Q1625 841.75 1624.2 840.625Q1623.39 839.501 1622.64 838.338Q1621.9 837.175 1621.21 835.976Q1620.52 834.776 1619.89 833.544Q1619.26 832.312 1618.7 831.051Q1618.14 829.789 1617.63 828.5Q1617.13 827.212 1616.7 825.9Q1616.26 824.587 1615.89 823.255Q1615.52 821.923 1615.22 820.574C1611.68 805.306 1613.75 788.296 1622.29 775.001C1632.19 759.609 1647.15 752.41 1664.35 748.499Z"/>
	<path fill="#FEFEFE" d="M1672.57 776.5C1674.88 776.544 1677.22 776.578 1679.51 776.856C1685.66 777.602 1688.98 780.369 1692.61 785.241C1694.21 787.394 1695.91 789.896 1695.53 792.673C1691.08 795.462 1680.14 793.939 1674.75 793.838L1650.17 793.99C1660.04 787.091 1657.4 780.085 1672.57 776.5Z"/>
	<path fill="#3C5CC4" d="M1496.71 712.499C1508.51 711.195 1521.29 712.069 1533.19 712.093C1533.52 712.626 1533.59 712.715 1533.88 713.348C1536.32 718.582 1535.42 787.748 1533.34 793.775C1538.42 790.97 1566.74 755.433 1568.6 749.439L1610.12 749.598C1610.09 749.908 1610.06 750.444 1609.96 750.771C1608.17 756.454 1572.77 799.001 1566.41 802.97C1566.52 803.039 1566.64 803.102 1566.75 803.175C1572.49 806.968 1595.57 835.229 1596.99 841.505C1597.36 841.706 1597.9 841.984 1598.26 842.252C1602.44 845.424 1612.48 858.046 1613.14 862.882L1571.02 862.957C1571.07 862.364 1571.12 862.243 1570.94 861.583C1569.48 856.363 1537.14 814.795 1532.74 811.962C1532.84 812.202 1532.94 812.445 1533.05 812.682C1533.61 813.863 1534.12 814.947 1534.42 816.224C1535.96 822.592 1535.99 858.292 1533.16 862.903L1495.8 862.879C1496.95 861.022 1497.25 859.322 1497.41 857.198C1498.2 846.838 1497.74 836.043 1497.78 825.628L1497.76 764.455C1497.69 751.044 1499.3 724.632 1496.71 712.499Z"/>
	<path fill="#17213E" d="M1258.33 533.916L1298.28 533.94C1298.36 534.109 1298.44 534.28 1298.53 534.448C1299 535.338 1299.49 536.264 1299.72 537.25C1301.2 543.653 1301.7 565.199 1298.4 570.5C1299 571.441 1299.52 572.439 1299.8 573.525C1301.16 578.736 1300.32 586.134 1300.3 591.58C1300.22 608.83 1302.05 626.765 1292.44 642.099C1284.82 654.257 1272.5 660.204 1258.99 663.367C1242.21 667.296 1219.96 664.928 1205.22 655.639C1182.13 641.099 1182.94 614.56 1183.09 590.569L1183.32 554.646C1183.31 548.495 1183.94 541.039 1182.51 535.085C1182.46 534.887 1182.41 534.692 1182.36 534.496C1195.33 532.755 1209.87 533.938 1223.02 533.986C1229.6 544.213 1218.54 602.403 1227.62 620.224C1229.53 623.975 1232.53 627.203 1236.66 628.419C1240.91 629.67 1245.62 628.639 1249.44 626.554C1254.68 623.693 1258.05 618.793 1259.6 613.102C1261.22 607.217 1260.8 547.127 1259.9 538.535C1259.72 536.774 1259.24 535.442 1258.33 533.916Z"/>
	<path fill="#3C5CC4" d="M1286.19 750.499C1306.44 748.996 1317.51 760.4 1323.02 760.391C1323.32 758.73 1323.79 757.47 1324.52 755.955C1331.13 751.128 1348.74 753.71 1357.25 753.852C1357.73 754.629 1358.11 755.351 1358.35 756.24C1360.25 763.476 1359.57 846.925 1358.6 858.488C1358.48 859.988 1357.95 861.242 1357.2 862.539C1348.23 862.847 1335.36 864.765 1327.17 861.043C1325.45 858.486 1326.05 857.507 1326.48 854.576L1325.23 852.906C1322.65 854.476 1320.01 855.897 1317.35 857.309C1317.2 857.547 1317.08 857.809 1316.9 858.023C1314.04 861.377 1305.75 862.94 1301.55 863.636C1286.55 866.121 1271.16 863.096 1258.81 854.035C1246.45 844.967 1239.37 831.164 1237.17 816.218C1234.82 800.237 1238.19 783.816 1248.02 770.767C1257.75 757.86 1270.72 752.641 1286.19 750.499Z"/>
	<path fill="#FEFEFE" d="M1293.11 782.499C1299.84 781.842 1306.58 782.787 1312.3 786.585Q1312.85 786.951 1313.39 787.345Q1313.92 787.739 1314.43 788.159Q1314.94 788.58 1315.43 789.026Q1315.92 789.473 1316.39 789.943Q1316.86 790.414 1317.3 790.908Q1317.74 791.402 1318.16 791.919Q1318.57 792.435 1318.96 792.971Q1319.35 793.508 1319.71 794.064Q1320.07 794.62 1320.4 795.193Q1320.74 795.767 1321.04 796.357Q1321.34 796.947 1321.61 797.551Q1321.88 798.156 1322.12 798.774Q1322.37 799.391 1322.57 800.021Q1322.78 800.65 1322.96 801.289Q1323.13 801.928 1323.28 802.575Q1323.42 803.222 1323.53 803.876C1324.66 810.354 1323.37 817.345 1319.46 822.7C1315.18 828.566 1309.25 831.251 1302.23 832.27C1302.02 832.355 1301.81 832.447 1301.6 832.525C1297.73 833.939 1290.04 832.329 1286.46 830.482C1280.73 827.532 1276.89 821.666 1275.08 815.624C1272.97 808.593 1273.75 800.388 1277.32 793.955C1280.92 787.47 1286.18 784.475 1293.11 782.499Z"/>
	<path fill="#17213E" d="M1665.07 530.5C1678.44 529.65 1692.04 531.07 1704.22 536.976C1719.25 544.265 1729.44 557.173 1734.9 572.744C1738.21 582.166 1743.07 600.865 1738.66 610.07L1682.33 609.968C1671.28 609.925 1659.76 609.115 1648.81 610.444L1648.27 611.553C1649.63 616.644 1654.34 620.973 1658.68 623.658Q1659.51 624.164 1660.37 624.628Q1661.23 625.092 1662.11 625.512Q1662.99 625.932 1663.9 626.307Q1664.8 626.682 1665.71 627.011Q1666.63 627.341 1667.57 627.624Q1668.5 627.907 1669.45 628.142Q1670.4 628.378 1671.35 628.565Q1672.31 628.753 1673.28 628.892Q1674.24 629.031 1675.22 629.122Q1676.19 629.213 1677.16 629.254Q1678.14 629.296 1679.11 629.288Q1680.09 629.281 1681.06 629.225Q1682.04 629.168 1683.01 629.063Q1683.98 628.957 1684.94 628.803Q1685.91 628.649 1686.86 628.447Q1687.82 628.245 1688.76 627.995C1693.79 626.714 1701.5 623.095 1704.11 618.436C1704.18 618.308 1704.24 618.174 1704.31 618.043C1710.75 620.581 1719.43 625.625 1724.4 630.402C1727.76 631.727 1732.49 634.208 1734.24 637.487C1734.01 638.418 1733.79 639.048 1733.22 639.834C1723.49 653.159 1706.75 660.581 1690.89 663.147C1671.04 666.36 1649.54 662.748 1633.13 650.705C1618.86 640.245 1609.93 624.937 1607.31 607.51C1604.57 589.258 1607.64 570.665 1618.78 555.652C1630.39 540.007 1646.35 533.264 1665.07 530.5Z"/>
	<path fill="#FEFEFE" d="M1668.98 564.5C1676.87 564.062 1685.31 565.503 1691.43 570.9C1695.35 574.36 1697.36 578.435 1697.77 583.607C1690.78 584.405 1682.83 583.536 1675.75 583.435L1645.73 583.221C1656.36 574.127 1650.68 568.687 1668.98 564.5Z"/>
	<path fill="#FDCA1C" d="M235.426 744.227C252.372 743.119 317.54 742.812 331.286 746.774C334.227 749.447 337.158 752.388 338.705 756.125C341.767 763.517 340.957 842.914 338.109 849.674C335.75 855.273 330.357 857.936 325.082 860.166C304.328 859.934 283.552 860.178 262.795 860.219C252.877 860.238 241.548 861.331 231.829 859.576C224.515 858.254 221.355 853.88 217.433 848.088C216.315 834.385 214.762 764.886 219.465 755.514C222.682 749.101 228.938 746.272 235.426 744.227Z"/>
	<path fill="#17213E" d="M1403.79 473.497C1414.34 470.383 1433.02 472.484 1444.3 472.577C1444.74 473.278 1445.11 473.889 1445.33 474.693C1447.46 482.389 1445.89 516.243 1445.9 527.578C1445.94 569.801 1447.36 612.537 1445.76 654.704C1445.66 657.174 1445.38 659.005 1444.15 661.181C1432.9 661.206 1421.47 661.646 1410.25 660.714C1408.33 658.421 1409.49 654.697 1408.49 651.705C1405.43 652.969 1402.92 656.235 1400.05 658.054C1384.92 667.653 1367.93 665.174 1351.53 661.499C1344.5 656.575 1336.86 653.982 1330.27 647.975C1316.93 635.83 1311.93 619.045 1311.23 601.513C1310.49 582.919 1314.19 564.325 1327.3 550.362Q1328.34 549.267 1329.43 548.225Q1330.53 547.183 1331.67 546.196Q1332.81 545.209 1334 544.28Q1335.19 543.351 1336.43 542.481Q1337.66 541.612 1338.94 540.804Q1340.21 539.997 1341.53 539.253Q1342.84 538.51 1344.19 537.832Q1345.54 537.154 1346.92 536.544Q1348.3 535.934 1349.71 535.392Q1351.12 534.851 1352.56 534.38Q1353.99 533.908 1355.45 533.508Q1356.9 533.109 1358.38 532.781Q1359.85 532.454 1361.34 532.199Q1362.83 531.945 1364.33 531.764Q1365.83 531.584 1367.33 531.477Q1368.84 531.371 1370.35 531.339C1383.42 531.017 1394.7 534.837 1404.2 543.928C1406.22 535.79 1406.55 480.121 1403.79 473.497Z"/>
	<path fill="#FEFEFE" d="M1370.46 568.499C1379.72 567.163 1387.71 566.758 1395.66 572.619C1401.67 577.056 1404.94 583.678 1406.07 590.951C1407.47 599.935 1406.65 610.345 1401.03 617.832C1396.95 623.277 1391.8 625.97 1385.17 626.989C1381.05 627.711 1376.58 627.454 1372.55 626.388C1365.36 624.488 1359.57 620.498 1355.93 613.909C1351.7 606.256 1350.97 596.351 1353.44 588.018C1356.33 578.251 1361.87 573.184 1370.46 568.499Z"/>
	<path fill="#17213E" d="M1507.13 531.499C1514.67 530.663 1523 530.222 1530.4 532.073C1536.32 533.551 1545.56 541.819 1551.02 540.719L1551.37 536.227C1555.93 533.833 1584.16 535.609 1591.41 535.646C1591.5 535.807 1591.6 535.964 1591.68 536.128C1593.87 540.421 1593.51 633.204 1592.97 643.985C1592.63 650.709 1591.78 657.427 1589.92 663.912C1585.86 678.125 1577.1 689.746 1564.07 696.899C1544.42 707.682 1516.56 709.123 1495.31 702.8C1486.07 700.052 1468.31 693.462 1463.75 684.465C1463.31 683.608 1464.09 682.247 1464.39 681.34C1468.95 679.119 1488.42 662.72 1490.86 658.078C1497.16 661.708 1502.15 666.064 1509.18 668.552C1518.74 671.934 1531.06 672.056 1540.28 667.536C1545.22 665.113 1549.6 661.167 1551.24 655.781C1552.56 651.459 1552.77 645.254 1550.63 641.197C1550.35 642.046 1550.04 642.816 1549.59 643.599C1546.75 648.531 1537.5 652.174 1532.32 653.563C1517.64 657.5 1500.4 654.698 1487.31 647.142C1474.16 639.55 1465.18 627.016 1461.31 612.435C1456.64 594.84 1458.26 574.093 1467.6 558.253C1476.71 542.792 1490.29 535.839 1507.13 531.499Z"/>
	<path fill="#FEFEFE" d="M1516.15 567.499C1524.93 566.058 1533.19 566.073 1540.87 571.133C1547.26 575.342 1551.36 581.889 1552.73 589.378C1554.03 596.497 1552.86 604.54 1548.55 610.481C1544.48 616.096 1538.94 619.07 1532.21 620.197C1528.7 622.012 1521.39 621.117 1517.62 620.08C1510.83 618.211 1505.2 612.834 1501.9 606.742C1498.4 600.286 1497.33 592.482 1499.51 585.419C1502.34 576.29 1508.17 571.848 1516.15 567.499Z"/>
	<path fill="#17213E" d="M1036.35 492.459C1054.26 490.845 1110.72 490.415 1127.23 494.299C1140.2 497.351 1152.8 504.386 1159.82 516.062C1165.59 525.663 1167.31 538.576 1164.51 549.408Q1164.29 550.3 1164.02 551.179Q1163.75 552.059 1163.44 552.924Q1163.13 553.789 1162.78 554.639Q1162.43 555.488 1162.04 556.319Q1161.65 557.15 1161.21 557.96Q1160.78 558.771 1160.31 559.56Q1159.84 560.348 1159.33 561.112Q1158.81 561.877 1158.27 562.615Q1157.72 563.354 1157.14 564.064Q1156.56 564.775 1155.94 565.456Q1155.32 566.138 1154.67 566.788Q1154.02 567.438 1153.34 568.056Q1152.66 568.673 1151.95 569.257Q1151.24 569.841 1150.5 570.389Q1149.77 570.937 1149 571.448Q1148.24 571.959 1147.45 572.432C1154.03 575.02 1160.37 580.516 1164.65 586.069C1172.21 595.882 1175.71 609.183 1173.99 621.472C1173.24 626.907 1170.93 635.414 1166.32 638.821C1165.76 642.497 1162.26 645.902 1159.7 648.397C1139.57 668.036 1064.92 662.283 1035.6 662.14C1035.68 662.013 1035.78 661.889 1035.85 661.758C1037.04 659.796 1037.02 657.848 1037.1 655.617C1038.28 619.559 1037.14 583.105 1037.11 547.008C1037.1 534.643 1039.01 502.691 1036.35 492.459Z"/>
	<path fill="#FEFEFE" d="M1075.65 527.491C1086.27 526.542 1100.32 525.61 1110.71 527.871C1115.23 528.854 1119.51 530.896 1122.01 534.95C1124.19 538.48 1124.48 543.552 1123.39 547.493C1122.45 550.909 1120.53 552.797 1117.52 554.496C1117.19 555.108 1117.32 554.996 1116.79 555.472C1109.63 561.973 1084.22 559.092 1074.65 559.002C1078.32 553.089 1076.5 534.502 1075.65 527.491Z"/>
	<path fill="#FEFEFE" d="M1075.32 592.485C1085.59 590.764 1106.4 590.171 1116.3 592.441C1121.37 593.602 1126.42 595.916 1129.16 600.568C1131.56 604.661 1131.74 609.85 1130.47 614.344C1129.42 618.056 1127.53 620.141 1124.25 622.029L1123.67 623.036C1114.07 630.211 1086.98 627.022 1074.67 626.917C1074.76 626.753 1074.86 626.592 1074.95 626.424C1077.79 620.947 1077.18 598.708 1075.32 592.485Z"/>
	<path fill="#75C9F8" d="M390.382 636.025C387.196 640.004 383.695 643.633 378.826 645.484C370.377 648.698 237.139 648.069 231.028 645.183C225.288 642.472 221.921 638.978 219.923 632.898C218.714 629.217 218.213 625.274 218.029 621.416C217.269 605.499 218.286 589.134 218.181 573.166C218.053 553.756 216.682 533.533 218.055 514.245C218.358 509.995 218.994 504.756 221.083 500.984C223.598 496.44 229.609 492.51 234.499 491.088C242.936 488.636 354.413 489.333 369.437 490.397C373.14 490.659 376.944 491.529 380.209 493.347C397.747 503.112 386.128 532.405 390.759 548.189C390.813 548.373 390.877 548.553 390.936 548.735C389.337 557.766 390.37 568.468 390.439 577.664C390.586 597.109 391.041 616.587 390.382 636.025Z"/>
	<path fill="#0C3570" d="M489.928 605.095C490.137 605.085 490.346 605.072 490.555 605.065C500.094 604.726 506.353 611.169 512.912 617.293C524.481 628.094 532.495 634.201 532.992 650.926C534.224 692.429 533.02 734.341 532.991 775.873L532.929 821.727C532.913 829.445 533.517 837.817 532.514 845.452C531.999 849.367 530.001 852.805 527.267 855.608C524.314 858.635 519.498 859.828 515.454 860.416C505.186 861.91 494.065 861.005 483.673 860.959L425.75 860.67C416.981 860.59 406.577 861.778 398.073 859.766C395.094 859.061 389.433 857.164 387.832 854.356C385.363 850.026 384.655 843.2 384.305 838.261C383.307 824.207 382.739 715.957 385.235 708.15C387.227 701.921 481.224 609.321 489.928 605.095Z"/>
	<path fill="#09CCC1" d="M704.874 560.251Q706.69 560.45 708.497 560.72C713.858 561.537 718.413 563.502 721.641 568.021C723.943 571.243 725.603 575.1 725.868 579.072C727.101 597.569 726 616.873 726.015 635.44L726.067 751.961L726.061 814.371C726.058 823.802 727.264 835.229 725.416 844.394C723.849 852.165 718.287 856.588 711.959 860.622C698.802 861.711 685.196 861.113 671.989 861.143L597.75 861.039C592.169 861.059 587.058 858.812 583.12 854.91C580.129 851.947 578.483 848.337 577.878 844.205C575.47 827.779 577.362 808.448 577.385 791.741L577.526 680.441C596.287 658.517 620.484 637.651 641.238 617.377C658.839 600.183 676.781 579.899 695.708 564.406C698.456 562.156 701.489 561.172 704.874 560.251Z"/>
	<path fill="#3C5CC4" d="M771.725 286.755C790.36 284.815 877.408 274.442 889.105 277.177C890.84 278.858 891.827 279.954 891.836 282.519C891.869 291.937 886.477 312.255 884.565 322.999L871.573 394.048C869.871 403.614 868.986 413.36 867.066 422.883C866.421 426.081 865.757 429.116 864.048 431.931C861.633 432.647 860.834 432.187 858.629 430.983C848.303 425.344 824.133 397.922 814.397 387.879C799.926 401.668 785.976 417.327 770.839 430.279C725.715 472.269 682.373 516.276 637.891 558.958C623.713 572.563 604.972 593.557 589.991 604.846C586.436 607.525 582.026 609.178 577.524 608.976C573.461 608.794 569.926 606.546 566.716 604.241C559.07 598.75 552.279 591.561 545.407 585.118C528.254 569.036 511.322 551.658 493.168 536.744C458.804 569.709 425.078 603.418 390.382 636.025C391.041 616.587 390.586 597.109 390.439 577.664C390.37 568.468 389.337 557.766 390.936 548.735L450.362 490.728C460.034 481.272 470.17 469.277 481.106 461.408C484.233 459.158 487.903 457.549 491.779 457.287C495.231 457.053 498.875 457.883 501.799 459.745C511.072 465.65 519.213 475.161 527.132 482.824C543.653 498.811 559.887 515.189 577.039 530.5C641.141 467.631 707.208 406.712 770.38 342.885C760.542 332.185 731.919 307.878 726.315 298.077C724.97 295.724 724.534 294.586 725.257 291.993C735.11 287.842 759.848 287.756 771.725 286.755Z"/>
	<path fill="#75C9F8" d="M771.725 286.755C772.755 252.294 765.523 218.641 793.62 192.276C815.229 171.998 842.511 174.141 870.042 174.092C883.933 174.067 897.915 173.73 911.793 174.238C931.346 174.954 949.915 181.929 963.34 196.521C972.548 206.53 978.34 219.104 980.709 232.442C982.972 245.191 982.145 258.735 982.137 271.651L982.084 325.791L982.28 516.936L770.998 516.894C770.696 488.033 771.613 459.132 770.839 430.279C785.976 417.327 799.926 401.668 814.397 387.879C824.133 397.922 848.303 425.344 858.629 430.983C860.834 432.187 861.633 432.647 864.048 431.931C865.757 429.116 866.421 426.081 867.066 422.883C868.986 413.36 869.871 403.614 871.573 394.048L884.565 322.999C886.477 312.255 891.869 291.937 891.836 282.519C891.827 279.954 890.84 278.858 889.105 277.177C877.408 274.442 790.36 284.815 771.725 286.755Z"/>
	<path fill="#3C5CC4" d="M1595.75 175.074C1632.74 173.979 1669.86 174.362 1706.87 174.336C1728.68 174.321 1753.29 171.946 1774.55 176.269C1785.61 178.519 1795.09 183.153 1803.35 190.871C1816.5 203.158 1822.91 219.833 1823.48 237.644C1824.08 256.75 1823.36 275.995 1823.46 295.121C1823.58 316.354 1826.42 347.762 1821.64 367.788Q1821.19 369.701 1820.61 371.58Q1820.03 373.459 1819.33 375.296Q1818.63 377.133 1817.81 378.92Q1816.99 380.707 1816.05 382.436Q1815.12 384.165 1814.07 385.828Q1813.02 387.491 1811.87 389.082Q1810.71 390.673 1809.45 392.184Q1808.19 393.695 1806.84 395.12C1797.35 405.128 1783.56 412.943 1769.51 413.219L1768.73 413.23C1755.1 412.308 1740.85 413.099 1727.17 413.123L1646.93 413.25C1626.34 413.274 1602.85 415.976 1583.14 409.327C1568.01 404.222 1554.87 391.17 1547.96 376.949C1544.8 370.431 1543.08 363.686 1542.32 356.518C1540.42 338.791 1541.99 319.813 1541.95 301.942C1541.9 280.4 1540.36 257.851 1542 236.4Q1542.3 231.884 1543.2 227.448Q1544.1 223.011 1545.57 218.732C1550.99 203.186 1562.74 189.192 1577.75 182.228C1583.45 179.582 1589.7 178.091 1595.27 175.323C1595.43 175.242 1595.59 175.157 1595.75 175.074Z"/>
	<path fill="#FEFEFE" d="M1650.43 244.499C1650.71 244.512 1650.99 244.517 1651.27 244.539C1654.75 244.817 1733.62 287.145 1736.34 290.434C1733.53 294.622 1711 306.145 1705.37 308.376C1702.79 312.096 1654.4 338.017 1649.14 339.686C1652.82 333.457 1651.42 256.474 1650.43 244.499Z"/>
	<path fill="#F89998" d="M252.502 175.401C266.549 174.329 280.917 174.875 295.008 174.875L364.356 174.865L418.273 174.879C428.868 174.881 440.015 174.24 450.539 175.47C457.214 176.251 463.841 178.249 469.566 181.824C479.889 188.269 487.901 198.344 490.619 210.329C493.496 223.019 492.003 238.542 491.993 251.599L491.976 320.281C491.978 346.945 493.895 374.682 491.813 401.173C491.272 408.055 490.263 415.238 486.463 421.131C480.118 430.968 470.066 435.643 459.028 438.029C417.322 438.664 375.517 438.111 333.799 438.167C310.384 438.199 285.217 440.126 261.975 437.566C255.761 436.882 249.774 434.606 244.336 431.573Q243.172 430.938 242.041 430.246Q240.91 429.554 239.816 428.806Q238.721 428.058 237.665 427.256Q236.61 426.454 235.595 425.6Q234.581 424.746 233.611 423.842Q232.641 422.939 231.717 421.988Q230.793 421.036 229.919 420.04Q229.044 419.044 228.22 418.005Q227.396 416.966 226.626 415.887Q225.855 414.809 225.139 413.692Q224.424 412.576 223.765 411.426Q223.106 410.275 222.506 409.093Q221.906 407.911 221.365 406.7Q220.825 405.489 220.346 404.253Q219.867 403.017 219.451 401.758Q219.035 400.499 218.682 399.221C214.771 384.502 216.879 314.65 216.858 294.661C216.831 269.144 214.992 240.008 217.265 214.976C217.87 208.311 219.248 201.31 222.714 195.518C229.416 184.316 240.294 178.567 252.502 175.401Z"/>
	<path fill="#17213E" d="M402.522 269.869L435.514 269.844L435.427 301.728C424.653 302.425 413.397 301.803 402.573 301.812L402.522 269.869Z"/>
	<path fill="#17213E" d="M274.301 269.883L307.837 269.864L307.778 301.889L274.313 301.889L274.301 269.883Z"/>
	<path fill="#17213E" d="M338.282 269.892L371.998 269.863L371.949 301.82L338.345 301.827L338.282 269.892Z"/>
	<path fill="#17213E" d="M402.372 332.073L435.44 332.097L435.286 364.767L402.309 364.741L402.372 332.073Z"/>
	<path fill="#17213E" d="M274.51 331.968L307.856 332.026L307.831 364.855L274.584 364.846L274.51 331.968Z"/>
	<path fill="#17213E" d="M338.493 332.035L372.041 332.065L371.991 364.793L338.371 364.695L338.493 332.035Z"/>
	<path fill="#0C3570" d="M770.998 516.894L982.28 516.936L982.222 687.488C982.27 712.668 984.955 757.959 980.155 781.375C976.375 799.82 967.647 817.521 954.67 831.232Q953.821 832.12 952.951 832.986Q952.08 833.853 951.188 834.698Q950.296 835.542 949.384 836.365Q948.471 837.187 947.539 837.986Q946.606 838.786 945.654 839.562Q944.702 840.338 943.731 841.09Q942.76 841.842 941.771 842.57Q940.781 843.298 939.774 844.002Q938.767 844.705 937.742 845.383Q936.718 846.061 935.677 846.713Q934.637 847.366 933.58 847.992Q932.523 848.618 931.452 849.218Q930.38 849.818 929.293 850.392Q928.207 850.965 927.107 851.511Q926.007 852.057 924.893 852.576Q923.78 853.095 922.654 853.586Q921.528 854.076 920.39 854.539Q919.252 855.002 918.103 855.437Q916.954 855.871 915.795 856.277Q914.636 856.683 913.467 857.06Q912.298 857.437 911.12 857.785Q909.942 858.133 908.755 858.452Q907.569 858.77 906.375 859.06Q905.181 859.349 903.981 859.608Q902.78 859.868 901.573 860.097Q900.367 860.327 899.155 860.526Q897.943 860.726 896.726 860.895Q895.509 861.065 894.289 861.204Q893.069 861.344 891.845 861.453Q890.622 861.562 889.396 861.64Q888.17 861.719 886.943 861.767Q885.715 861.815 884.487 861.833C865.665 862.247 846.722 861.884 827.881 861.982C815.265 862.047 801.622 863.225 789.178 861.504C784.676 860.882 780.48 859.805 777.168 856.532C774.029 853.429 771.927 849.45 771.427 845.063C770.09 833.326 770.951 820.832 770.97 809.012L771.045 742.022L770.998 516.894Z"/>
	<path fill="#75C9F8" d="M1768.73 413.23C1767.87 413.65 1120.87 416.042 1087.75 412.951C1072.37 411.516 1058.12 403.314 1048.35 391.513Q1047.14 390.045 1046.01 388.504Q1044.89 386.962 1043.87 385.355Q1042.85 383.747 1041.93 382.078Q1041.01 380.41 1040.19 378.687Q1039.38 376.964 1038.67 375.194Q1037.97 373.424 1037.37 371.614Q1036.78 369.803 1036.3 367.959Q1035.81 366.115 1035.45 364.245C1031.44 344.295 1034.14 318.878 1034.11 298.332C1034.09 277.343 1032.44 255.016 1034.47 234.176C1036.2 216.355 1044.37 200.414 1058.23 189.002C1067.93 181.014 1079 176.305 1091.48 174.952C1103.02 173.7 1115.13 174.358 1126.74 174.38L1186.77 174.46L1384.18 174.719L1523.61 174.54C1547.26 174.468 1572.24 172.846 1595.75 175.074C1595.59 175.157 1595.43 175.242 1595.27 175.323C1589.7 178.091 1583.45 179.582 1577.75 182.228C1562.74 189.192 1550.99 203.186 1545.57 218.732Q1544.1 223.011 1543.2 227.448Q1542.3 231.884 1542 236.4C1540.36 257.851 1541.9 280.4 1541.95 301.942C1541.99 319.813 1540.42 338.791 1542.32 356.518C1543.08 363.686 1544.8 370.431 1547.96 376.949C1554.87 391.17 1568.01 404.222 1583.14 409.327C1602.85 415.976 1626.34 413.274 1646.93 413.25L1727.17 413.123C1740.85 413.099 1755.1 412.308 1768.73 413.23Z"/>
	<path fill="#FEFEFE" d="M1288.19 332.498C1297.74 331.035 1345.96 330.728 1354.19 332.697C1356.63 333.281 1358.39 334.875 1359.65 337.035C1361.47 340.181 1361.62 346.458 1360.53 349.872C1359.56 352.893 1356.97 354.224 1354.32 355.5C1354.15 355.598 1353.98 355.712 1353.8 355.795C1346.81 358.975 1295.73 357.412 1287.45 354.476C1285.34 352.639 1284.03 351.04 1283.66 348.161C1282.92 342.265 1284.58 337.089 1288.19 332.498Z"/>
	<path fill="#FEFEFE" d="M1112.7 332.495C1123.7 330.884 1251.67 331.357 1254.5 332.399C1257.37 333.456 1259.52 335.625 1260.66 338.443C1262.29 342.463 1261.88 347.053 1260.04 350.939C1258.52 354.157 1256.28 354.803 1253.18 355.929L1252.19 356.581C1234.34 358.422 1215.27 356.788 1197.28 356.824C1172.03 356.874 1146.18 358.223 1121.02 356.898C1118.46 356.763 1114.93 356.604 1112.75 355.077C1110.33 353.384 1108.74 350.945 1108.27 348.042C1107.32 342.233 1109.25 337.044 1112.7 332.495Z"/>
	<path fill="#FEFEFE" d="M1112.77 235.494C1124.47 234.387 1249.89 233.869 1254.65 235.605C1257.39 236.603 1259.25 239.107 1260.32 241.735C1261.83 245.468 1262.18 249.964 1260.49 253.71C1258.96 257.111 1257.35 258.21 1254.05 259.502C1253.88 259.536 1253.71 259.574 1253.53 259.606C1244.11 261.305 1115.57 261.394 1111.9 258.348C1109.68 256.506 1108.2 253.946 1107.88 251.073C1107.19 244.875 1108.9 240.189 1112.77 235.494Z"/>
	<path fill="#FEFEFE" d="M1112.47 283.494C1130.05 281.101 1162.48 283.01 1181.88 283.027L1230.29 283.022C1236.25 282.993 1242.32 282.236 1248.25 282.529Q1249.94 282.619 1251.57 283.043Q1253.2 283.468 1254.72 284.211C1257.93 285.795 1260.41 288.847 1261.45 292.253C1262.53 295.754 1262.07 299.479 1260.34 302.691C1258.63 305.837 1256.51 306.859 1253.2 307.862C1226.32 309.197 1199.13 308.591 1172.21 308.656C1154.61 308.698 1136.29 309.822 1118.79 308.427C1116.45 308.24 1113.9 307.936 1112.06 306.342C1109.69 304.302 1108.13 301.584 1107.86 298.446C1107.35 292.642 1108.8 287.941 1112.47 283.494Z"/>
	<path fill="#FEFEFE" d="M1289.16 235.498C1305.26 234.012 1468.52 234.099 1472.72 235.787C1475.48 236.894 1477.62 239.801 1478.63 242.524C1480.01 246.19 1479.82 249.244 1478.22 252.784C1476.34 256.941 1474.97 257.979 1470.78 259.501C1470.43 259.586 1469.76 259.757 1469.36 259.815C1456.79 261.647 1430.45 260.332 1416.57 260.427Q1376.88 260.651 1337.19 260.355C1323.03 260.268 1308.34 260.886 1294.23 259.704C1291.76 259.496 1289.3 259.259 1287.37 257.538C1284.76 255.213 1283.53 252.224 1283.56 248.771C1283.6 242.956 1285.06 239.549 1289.16 235.498Z"/>
	<path fill="#FEFEFE" d="M1288.86 283.498C1303.7 281.856 1467.89 281.903 1472.75 283.809C1475.32 284.815 1477.25 287.008 1478.31 289.515C1479.79 293.043 1480.17 298.162 1478.56 301.703C1477.02 305.072 1475.16 306.208 1471.91 307.501C1470.62 307.797 1469.33 308.035 1468.02 308.131C1452.64 309.248 1294.86 309.469 1290.52 307.638C1289.37 307.152 1287.78 305.864 1286.86 305.011C1284.81 303.118 1283.67 300.248 1283.53 297.499C1283.25 291.75 1285.02 287.65 1288.86 283.498Z"/>
</svg>
